<?xml version="1.0" encoding="UTF-8"?>
<svg width="228px" height="281px" viewBox="0 0 228 281" version="1.1" xmlns="http://www.w3.org/2000/svg" xmlns:xlink="http://www.w3.org/1999/xlink">
    <title>mao</title>
    <g id="页面-1" stroke="none" stroke-width="1" fill="none" fill-rule="evenodd">
        <g id="mao" transform="translate(2.000000, 2.000000)">
            <path d="M208,50 C122.666667,10 74.6666667,-6 64,2 C48,14 76,50 76,66 C76,82 68,82 60,106 C52,130 56,130 52,146 C48,162 0,166 0,190 C0,214 122.87565,230.238243 152,242 C171.416233,249.841171 190.0829,260.507838 208,274 L208,50 Z" stroke="#000000" stroke-width="4" fill="#000000"></path>
            <circle id="eye" stroke="#FFFFFF" stroke-width="4" fill="#FFFFFF" cx="138" cy="82" r="18" opacity="0">
                <animate attributeName="opacity" values="1; 1; 1; 1; 1; 1; 1; 1; 1; 1; 1; 1; 1; 1; 1; 1; 1; 1; 0; 0; 0; 0; 0; 0;" dur="1s" repeatCount="indefinite" />
            </circle>
            <circle id="eye" stroke="#FFFFFF" stroke-width="4" fill="#FFFFFF" cx="110" cy="172" r="18" opacity="0">
                <animate attributeName="opacity" values="1; 1; 1; 1; 1; 1; 1; 1; 1; 1; 1; 1; 1; 1; 1; 1; 1; 1; 0; 0; 0; 0; 0; 0;" dur="1s" repeatCount="indefinite" />
            </circle>
            <line x1="120" y1="82" x2="156" y2="82" id="-y-" stroke="#FFFFFF" stroke-width="4" fill="#FFFFFF" stroke-linecap="round" stroke-linejoin="round" transform="translate(138.000000, 82.000000) rotate(105.000000) translate(-138.000000, -82.000000) "></line>
            <line x1="92" y1="172" x2="128" y2="172" id="-y-" stroke="#FFFFFF" stroke-width="4" fill="#FFFFFF" stroke-linecap="round" stroke-linejoin="round" transform="translate(110.000000, 172.000000) rotate(105.000000) translate(-110.000000, -172.000000) "></line>
            <path d="M124.08,170.58 C125.78,170.58 127.12,170.22 128.12,169.52 C129.12,168.8 129.62,167.8 129.62,166.56 C129.62,165.26 129.02,164.26 127.84,163.54 C127.24,163.18 126,162.72 124.12,162.16 C122.74,161.76 121.86,161.46 121.5,161.26 C120.68,160.82 120.28,160.24 120.28,159.52 C120.28,158.7 120.62,158.1 121.3,157.7 C121.9,157.34 122.72,157.18 123.78,157.18 C124.94,157.18 125.84,157.42 126.48,157.94 C127.1,158.44 127.5,159.2 127.68,160.24 L129.3,160.24 C129.16,158.74 128.62,157.6 127.66,156.84 C126.74,156.1 125.46,155.74 123.86,155.74 C122.38,155.74 121.16,156.06 120.22,156.7 C119.16,157.38 118.64,158.36 118.64,159.6 C118.64,160.8 119.18,161.72 120.28,162.36 C120.74,162.6 121.84,163 123.56,163.52 C125.16,163.98 126.18,164.32 126.58,164.56 C127.52,165.06 128,165.76 128,166.66 C128,167.42 127.64,168.02 126.92,168.46 C126.2,168.9 125.24,169.12 124.08,169.12 C122.8,169.12 121.84,168.84 121.18,168.32 C120.46,167.74 120.02,166.82 119.88,165.58 L118.26,165.58 C118.38,167.34 119,168.64 120.12,169.5 C121.08,170.22 122.4,170.58 124.08,170.58 Z M143.44,170.3 L143.44,156.02 L141.82,156.02 L141.82,170.3 L143.44,170.3 Z M158.18,170.3 L158.18,156.02 L156.56,156.02 L156.56,170.3 L158.18,170.3 Z M176.74,170.3 L176.74,157.44 L181.78,157.44 L181.78,156.02 L170.08,156.02 L170.08,157.44 L175.12,157.44 L175.12,170.3 L176.74,170.3 Z M193.88,170.3 L195.4,166.3 L201.96,166.3 L203.48,170.3 L205.26,170.3 L199.64,156.02 L197.74,156.02 L192.12,170.3 L193.88,170.3 Z M201.44,164.92 L195.92,164.92 L198.66,157.78 L198.74,157.78 L201.44,164.92 Z M218.34,170.3 L218.34,165.3 L220.56,163.2 L226.86,170.3 L229.06,170.3 L221.7,162.14 L228.16,156.02 L226.02,156.02 L218.34,163.44 L218.34,156.02 L216.7,156.02 L216.7,170.3 L218.34,170.3 Z M250.96,170.3 L250.96,168.88 L242.14,168.88 L242.14,163.64 L250.14,163.64 L250.14,162.22 L242.14,162.22 L242.14,157.44 L250.62,157.44 L250.62,156.02 L240.5,156.02 L240.5,170.3 L250.96,170.3 Z M264.44,170.38 C264.76,170.38 265.06,170.26 265.3,170.02 C265.54,169.78 265.66,169.5 265.66,169.16 C265.66,168.8 265.54,168.52 265.3,168.28 C265.06,168.04 264.76,167.92 264.44,167.92 C264.08,167.92 263.8,168.04 263.58,168.28 C263.34,168.52 263.22,168.8 263.22,169.16 C263.22,169.5 263.34,169.78 263.58,170.02 C263.8,170.26 264.08,170.38 264.44,170.38 Z M284.62,170.58 C286.14,170.58 287.46,170.14 288.56,169.28 C289.74,168.36 290.48,167.06 290.8,165.4 L289.22,165.4 C288.94,166.64 288.36,167.58 287.52,168.22 C286.72,168.82 285.76,169.12 284.62,169.12 C282.94,169.12 281.68,168.56 280.8,167.46 C279.96,166.42 279.56,165 279.56,163.22 C279.56,161.44 279.98,160.02 280.82,158.94 C281.72,157.78 283,157.2 284.66,157.2 C285.78,157.2 286.72,157.46 287.5,158 C288.3,158.56 288.82,159.36 289.02,160.4 L290.6,160.4 C290.4,158.98 289.76,157.84 288.68,157 C287.6,156.16 286.26,155.74 284.68,155.74 C282.48,155.74 280.76,156.48 279.56,158 C278.46,159.36 277.92,161.1 277.92,163.22 C277.92,165.34 278.44,167.06 279.52,168.38 C280.7,169.84 282.4,170.58 284.62,170.58 Z M304.72,170.3 L304.72,158.56 L304.78,158.56 L312.9,170.3 L314.58,170.3 L314.58,156.02 L312.94,156.02 L312.94,167.64 L312.88,167.64 L304.8,156.02 L303.08,156.02 L303.08,170.3 L304.72,170.3 Z" id="sii" fill="#000000" fill-rule="nonzero" transform="translate(216.420000, 163.160000) rotate(90.000000) translate(-216.420000, -163.160000) "></path>
        </g>
    </g>
</svg>